<?xml version="1.0" standalone="no"?>
<!DOCTYPE svg PUBLIC "-//W3C//DTD SVG 1.1//EN" "http://www.w3.org/Graphics/SVG/1.1/DTD/svg11.dtd" >
<svg xmlns="http://www.w3.org/2000/svg">
<metadata></metadata>
<defs>
<font id="andale_monoregular" horiz-adv-x="1229" >
<font-face units-per-em="2048" ascent="1638" descent="-410" />
<missing-glyph horiz-adv-x="500" />
<glyph horiz-adv-x="0" />
<glyph unicode="&#xd;" />
<glyph unicode=" " />
<glyph unicode="!" d="M479 104q0 54 35.5 89.5t87.5 35.5q53 0 89 -36t36 -89t-36.5 -92t-88.5 -39q-51 0 -87 38.5t-36 92.5zM508 952v459h180v-459l-47 -528h-86z" />
<glyph unicode="&#x22;" d="M356 1171v240h154v-240l-37 -280h-80zM719 1171v240h153v-240l-36 -280h-80z" />
<glyph unicode="#" d="M88 397v131h219l76 359h-295v131h322l84 393h141l-84 -393h268l84 393h141l-83 -393h186v-131h-213l-76 -359h289v-131h-318l-84 -397h-141l84 397h-268l-84 -397h-141l84 397h-191zM449 528h268l76 359h-269z" />
<glyph unicode="$" d="M227 1067q0 142 89 238t249 125v106h117v-98q137 0 270 -43l-37 -140q-122 43 -233 43v-489q189 -81 264.5 -179.5t75.5 -223.5q0 -158 -90.5 -268.5t-249.5 -149.5v-129h-117v114h-8q-182 0 -319 72l34 141q161 -73 281 -73h12v583q-215 92 -276.5 181.5t-61.5 189.5z M387 1073q0 -121 178 -209v420q-178 -47 -178 -211zM682 131q180 65 180 254q0 84 -42.5 143t-137.5 111v-508z" />
<glyph unicode="%" d="M47 1104q0 144 76.5 239t206.5 95q133 0 207.5 -93t74.5 -241t-75 -241t-207 -93q-131 0 -207 93.5t-76 240.5zM168 0l745 1411h140l-746 -1411h-139zM190 1104q0 -213 140 -213q139 0 139 213t-139 213q-140 0 -140 -213zM614 307q0 145 76.5 239.5t206.5 94.5 q133 0 208 -92.5t75 -241.5q0 -147 -75.5 -240.5t-207.5 -93.5q-131 0 -207 94t-76 240zM758 307q0 -213 139 -213t139 213t-139 213t-139 -213z" />
<glyph unicode="&#x26;" d="M80 365q0 107 64 202.5t239 216.5q-166 195 -166 340q0 140 92.5 227t233.5 87q131 0 216 -74.5t85 -206.5q0 -95 -58 -182t-217 -203l295 -364q68 174 101.5 242t94.5 117.5t157 49.5h8v-137h-8q-61 0 -117 -65t-148 -318q75 -90 117 -129t94 -39q24 0 64 6v-127 q-44 -18 -109 -18q-53 0 -105 37.5t-134 146.5q-156 -201 -377 -201q-177 0 -299.5 112.5t-122.5 279.5zM244 371q0 -110 77.5 -185t184.5 -75q167 0 289 165l-336 414q-118 -86 -166.5 -158.5t-48.5 -160.5zM362 1124q0 -108 134 -258q118 82 164.5 145t46.5 134 q0 78 -47.5 118t-114.5 40q-78 0 -130.5 -47.5t-52.5 -131.5z" />
<glyph unicode="'" d="M539 1171v240h153v-240l-37 -280h-80z" />
<glyph unicode="(" d="M440 571q0 251 116 473.5t341 391.5l61 -86q-183 -164 -263.5 -343.5t-80.5 -433.5q0 -263 83.5 -442.5t260.5 -339.5l-61 -86q-223 169 -340 393t-117 473z" />
<glyph unicode=")" d="M270 -209q183 162 263.5 344.5t80.5 437.5q0 263 -83 440t-261 337l62 86q224 -169 340 -391.5t116 -473.5q0 -249 -116.5 -473t-339.5 -393z" />
<glyph unicode="*" d="M260 858l252 164l-252 164l59 100l240 -160v285h111v-283l237 158l60 -100l-248 -164l248 -164l-60 -100l-237 157v-286h-111v286l-240 -159z" />
<glyph unicode="+" d="M141 657v131h410v410h131v-410h405v-131h-405v-409h-131v409h-410z" />
<glyph unicode="," d="M494 -168q122 60 122 141q-52 6 -86 43t-34 84q0 51 33 86t83 35q56 0 97 -45.5t41 -109.5q0 -196 -218 -306z" />
<glyph unicode="-" d="M307 487v152h594v-152h-594z" />
<glyph unicode="." d="M485 104q0 54 35.5 89.5t87.5 35.5q53 0 89 -36t36 -89q0 -54 -36.5 -92.5t-88.5 -38.5q-51 0 -87 38.5t-36 92.5z" />
<glyph unicode="/" d="M215 -27l610 1465h150l-613 -1465h-147z" />
<glyph unicode="0" d="M147 705q0 338 117.5 535.5t347.5 197.5q224 0 344.5 -192.5t120.5 -540.5q0 -337 -117 -534.5t-348 -197.5q-223 0 -344 192t-121 540zM322 705q0 -305 71.5 -446.5t218.5 -141.5q148 0 219.5 140.5t71.5 447.5q0 308 -71.5 447.5t-219.5 139.5q-146 0 -218 -143 t-72 -444zM460 705q0 64 42.5 107t105.5 43t106.5 -43.5t43.5 -106.5q0 -65 -44 -111.5t-106 -46.5q-61 0 -104.5 46.5t-43.5 111.5z" />
<glyph unicode="1" d="M276 0v143h299v1096l-282 -141v164l305 157h141v-1276h279v-143h-742z" />
<glyph unicode="2" d="M205 0v119q295 329 383 441t143 235t55 245q0 118 -71.5 186t-200.5 68q-99 0 -266 -61l-23 141q151 64 316 64q189 0 304.5 -106.5t115.5 -284.5q0 -127 -59.5 -252t-152.5 -240t-362 -412h594v-143h-776z" />
<glyph unicode="3" d="M199 47l32 135q139 -65 275 -65q128 0 218.5 79.5t90.5 204.5q0 123 -97 200t-257 77h-43v135h12q154 0 254 72.5t100 195.5q0 100 -72 156.5t-198 56.5q-109 0 -244 -59l-22 141q136 62 274 62q189 0 311.5 -99.5t122.5 -255.5q0 -108 -74.5 -201.5t-179.5 -117.5v-6 q129 -36 207 -131.5t78 -214.5q0 -186 -145 -312.5t-342 -126.5q-168 0 -301 74z" />
<glyph unicode="4" d="M121 326v125l557 960h221v-942h174v-143h-174v-326h-164v326h-614zM287 469h448v780z" />
<glyph unicode="5" d="M225 35l33 139q136 -57 281 -57q129 0 208.5 83t79.5 232q0 141 -75 217t-193 76q-86 0 -170 -33l-98 45v674h645v-143h-502v-426q68 18 133 18q200 0 316 -122.5t116 -305.5q0 -192 -135 -325.5t-329 -133.5q-185 0 -310 62z" />
<glyph unicode="6" d="M188 688q0 320 137.5 535t376.5 215q165 0 285 -49l-26 -146q-139 51 -254 51q-163 0 -254 -156t-91 -403q132 107 287 107q179 0 298.5 -114.5t119.5 -295.5q0 -199 -106 -329t-283 -130q-226 0 -358 207.5t-132 507.5zM367 594q0 -181 85 -329t214 -148q109 0 168 80 t59 221q0 130 -65 205t-183 75q-153 0 -278 -104z" />
<glyph unicode="7" d="M199 1268v143h837v-117l-559 -1294h-168l551 1268h-661z" />
<glyph unicode="8" d="M164 393q0 134 82 236t229 145q-117 30 -187.5 115.5t-70.5 191.5q0 136 108 246.5t285 110.5q175 0 289.5 -110t114.5 -247q0 -103 -72 -189.5t-186 -117.5q144 -42 223.5 -143t79.5 -236q0 -194 -128.5 -308t-316.5 -114q-197 0 -323.5 115t-126.5 305zM336 401 q0 -129 83 -206.5t195 -77.5q116 0 195.5 76.5t79.5 207.5q0 99 -55 177.5t-224 123.5q-274 -80 -274 -301zM379 1073q0 -59 24.5 -103t61 -71t84 -42t61.5 -15q5 0 48 12t73.5 29.5t56.5 44.5t42 63.5t16 81.5q0 96 -69 159.5t-167 63.5q-95 0 -163 -65t-68 -158z" />
<glyph unicode="9" d="M178 981q0 194 114.5 326.5t295.5 132.5q221 0 345 -202t124 -513t-145.5 -530.5t-389.5 -219.5q-164 0 -284 50l26 145q138 -51 254 -51q166 0 265.5 161t99.5 398q-122 -107 -287 -107q-179 0 -298.5 114.5t-119.5 295.5zM352 995q0 -123 68.5 -201.5t179.5 -78.5 q153 0 266 94l13 10q0 190 -77 333.5t-202 143.5q-113 0 -180.5 -83.5t-67.5 -217.5z" />
<glyph unicode=":" d="M487 102q0 51 34.5 85t84.5 34q51 0 86 -34t35 -85q0 -50 -35 -84t-86 -34q-50 0 -84.5 34t-34.5 84zM487 938q0 50 34.5 84.5t84.5 34.5q51 0 86 -34.5t35 -84.5t-35 -84.5t-86 -34.5q-50 0 -84.5 34.5t-34.5 84.5z" />
<glyph unicode=";" d="M494 -168q122 60 122 141q-52 6 -86 43t-34 84q0 51 33 86t83 35q56 0 97 -45.5t41 -109.5q0 -196 -218 -306zM496 938q0 50 34 84.5t84 34.5q51 0 86 -34.5t35 -84.5q0 -51 -35 -85t-86 -34q-50 0 -84 34.5t-34 84.5z" />
<glyph unicode="&#x3c;" d="M227 664v120l748 445v-144l-600 -366l600 -357v-147z" />
<glyph unicode="=" d="M141 457v131h946v-131h-946zM141 858v131h946v-131h-946z" />
<glyph unicode="&#x3e;" d="M266 215v147l600 357l-600 366v144l748 -445v-120z" />
<glyph unicode="?" d="M240 1358q177 80 317 80q189 0 292 -85t103 -251q0 -172 -223 -357q-97 -80 -118.5 -106.5t-34.5 -64.5t-13 -95v-55h-137v57q0 174 111 271l132 116q64 54 94 109.5t30 118.5q0 104 -66 159.5t-180 55.5q-103 0 -260 -74zM389 104q0 54 35.5 89.5t87.5 35.5q53 0 89 -36 t36 -89q0 -54 -36.5 -92.5t-88.5 -38.5q-51 0 -87 38.5t-36 92.5z" />
<glyph unicode="@" d="M98 567q0 401 149.5 632t391.5 231q224 0 365 -182.5t141 -491.5q0 -231 -92.5 -382t-239.5 -151q-101 0 -129 119q-57 -119 -162 -119q-76 0 -127 80t-51 209q0 202 86.5 337.5t214.5 135.5q50 0 103 -37l4 25h125q-60 -539 -60 -578q0 -27 11.5 -45t29.5 -18 q67 0 122.5 119.5t55.5 304.5q0 264 -108 417.5t-289 153.5q-194 0 -313 -203t-119 -557q0 -284 120.5 -454t315.5 -170q161 0 303 69l23 -90q-151 -84 -326 -84q-242 0 -393.5 197.5t-151.5 531.5zM471 526q0 -91 25 -142.5t63 -51.5q57 0 94 55t39 78l41 375 q-30 37 -82 37q-82 0 -131 -96t-49 -255z" />
<glyph unicode="A" d="M57 0l461 1411h197l461 -1411h-172l-156 494h-463l-158 -494h-170zM432 637h369l-185 584z" />
<glyph unicode="B" d="M209 0v1411h391q204 0 319 -89.5t115 -252.5q0 -100 -66.5 -178t-183.5 -113v-4q141 -33 221 -128t80 -226q0 -192 -139.5 -306t-335.5 -114h-401zM373 143h186q163 0 258.5 74t95.5 203q0 137 -94 212t-272 75h-174v-564zM373 850h192q301 0 301 215q0 98 -74 150.5 t-217 52.5h-202v-418z" />
<glyph unicode="C" d="M127 705q0 344 138 538.5t421 194.5q102 0 202 -26t161 -69l-54 -129q-141 80 -309 80q-195 0 -290 -141.5t-95 -447.5q0 -588 385 -588q163 0 334 100l51 -129q-166 -115 -385 -115q-274 0 -416.5 188t-142.5 544z" />
<glyph unicode="D" d="M209 0v1411h278q277 0 444 -188.5t167 -517.5q0 -336 -169.5 -520.5t-434.5 -184.5h-285zM373 143h116q201 0 318 149t117 413q0 262 -117.5 412.5t-317.5 150.5h-116v-1125z" />
<glyph unicode="E" d="M256 0v1411h731v-143h-567v-437h545v-143h-545v-545h573v-143h-737z" />
<glyph unicode="F" d="M256 0v1411h748v-143h-584v-461h532v-143h-532v-664h-164z" />
<glyph unicode="G" d="M127 705q0 347 137.5 540t421.5 193q102 0 202 -26t161 -69l-54 -129q-141 80 -309 80q-194 0 -289.5 -142t-95.5 -447q0 -588 385 -588q145 0 219 61v348h-254v142h418v-568q-173 -127 -383 -127q-275 0 -417 186.5t-142 545.5z" />
<glyph unicode="H" d="M209 0v1411h164v-567h483v567h164v-1411h-164v700h-483v-700h-164z" />
<glyph unicode="I" d="M287 0v143h243v1125h-243v143h641v-143h-234v-1125h234v-143h-641z" />
<glyph unicode="J" d="M156 45l49 131q119 -59 262 -59q124 0 179.5 65.5t55.5 204.5v1024h164v-1036q0 -194 -101.5 -298t-297.5 -104q-171 0 -311 72z" />
<glyph unicode="K" d="M209 0v1411h164v-676l626 676h189l-551 -596l569 -815h-207l-477 692l-149 -162v-530h-164z" />
<glyph unicode="L" d="M256 0v1411h164v-1268h604v-143h-768z" />
<glyph unicode="M" d="M172 0v1411h213l236 -643l235 643h213v-1411h-158v1210l-213 -579h-155l-213 579v-1210h-158z" />
<glyph unicode="N" d="M188 0v1411h183l508 -1104v1104h161v-1411h-182l-506 1114v-1114h-164z" />
<glyph unicode="O" d="M127 705q0 357 124 545t361 188t361.5 -187.5t124.5 -545.5q0 -356 -124 -544t-362 -188q-236 0 -360.5 187.5t-124.5 544.5zM301 705q0 -287 79 -437.5t232 -150.5q312 0 312 588q0 589 -312 589q-152 0 -231.5 -152.5t-79.5 -436.5z" />
<glyph unicode="P" d="M256 0v1411h358q203 0 325 -102t122 -281q0 -180 -121.5 -287.5t-318.5 -107.5h-201v-633h-164zM420 776h178q289 0 289 242q0 112 -78.5 181t-202.5 69h-186v-492z" />
<glyph unicode="Q" d="M127 705q0 357 124 545t361 188t361.5 -187.5t124.5 -545.5q0 -520 -260 -676q37 -146 141 -146q58 0 127 15l29 -131q-87 -27 -172 -27q-220 0 -285 240q-39 -7 -66 -7q-236 0 -360.5 187.5t-124.5 544.5zM301 705q0 -287 79 -437.5t232 -150.5q312 0 312 588 q0 589 -312 589q-152 0 -231.5 -152.5t-79.5 -436.5z" />
<glyph unicode="R" d="M209 0v1411h399q201 0 317.5 -97.5t116.5 -271.5q0 -129 -85 -229.5t-234 -136.5l451 -676h-205l-414 641h-182v-641h-164zM373 784h207q130 0 211 70.5t81 177.5q0 236 -288 236h-211v-484z" />
<glyph unicode="S" d="M227 1067q0 175 126 273t319 98q141 0 280 -43l-37 -140q-126 43 -239 43q-128 0 -208.5 -58.5t-80.5 -166.5q0 -128 211 -225q156 -72 206.5 -100t102.5 -77t83.5 -115.5t31.5 -149.5q0 -206 -138.5 -319.5t-326.5 -113.5q-182 0 -319 72l34 141q161 -73 281 -73 q140 0 224.5 72.5t84.5 199.5q0 94 -55 159.5t-203 133.5q-152 70 -196.5 95.5t-88.5 70.5t-68 101t-24 122z" />
<glyph unicode="T" d="M98 1278v133h1035v-133h-435v-1278h-163v1278h-437z" />
<glyph unicode="U" d="M209 440v971h164v-956q0 -338 245 -338q123 0 180.5 80t57.5 260v954h164v-967q0 -245 -99.5 -358t-302.5 -113q-409 0 -409 467z" />
<glyph unicode="V" d="M53 1411h172l387 -1221l389 1221h170l-460 -1411h-197z" />
<glyph unicode="W" d="M43 1411h162l119 -1147l208 694h164l209 -696l121 1149h160l-180 -1411h-152l-240 795l-239 -795h-156z" />
<glyph unicode="X" d="M86 0l451 719l-449 692h188l347 -559l350 559h180l-442 -692l452 -719h-182l-358 578l-355 -578h-182z" />
<glyph unicode="Y" d="M94 1411h185l337 -635l338 635h185l-441 -807v-604h-163v604z" />
<glyph unicode="Z" d="M182 0v115l668 1153h-639v143h829v-117l-671 -1151h659v-143h-846z" />
<glyph unicode="[" d="M522 -270v1681h389v-137h-233v-1409h233v-135h-389z" />
<glyph unicode="\" d="M213 1438h149l611 -1465h-148z" />
<glyph unicode="]" d="M279 -131h243v1407h-243v135h399v-1677h-399v135z" />
<glyph unicode="^" d="M111 788l448 748h121l444 -748h-143l-367 601l-356 -601h-147z" />
<glyph unicode="_" d="M0 -315h1229v-131h-1229v131z" />
<glyph unicode="`" d="M348 1466h225l199 -301h-113z" />
<glyph unicode="a" d="M215 268q0 77 31 136t91 99.5t146 64t204 32.5l175 14v50q0 268 -250 268q-59 0 -149.5 -25.5t-155.5 -60.5l-41 112q213 109 396 109q356 0 356 -377v-448q0 -136 26 -242h-155q-19 63 -19 168q-133 -195 -362 -195q-116 0 -204.5 82.5t-88.5 212.5zM379 279 q0 -70 49 -113t125 -43q83 0 165 49.5t144 136.5v189q-211 -19 -289.5 -35.5t-136 -61.5t-57.5 -122z" />
<glyph unicode="b" d="M215 0v1411h156v-504q52 72 140.5 116t186.5 44q182 0 283.5 -146t101.5 -384q0 -241 -108 -402.5t-289 -161.5q-97 0 -181.5 48.5t-133.5 128.5v-150h-156zM371 319q44 -88 119 -147t155 -59q126 0 200.5 120t74.5 295q0 180 -71 292t-198 112q-165 0 -280 -180v-433z " />
<glyph unicode="c" d="M176 520q0 248 147.5 397.5t387.5 149.5q157 0 299 -55l-41 -129q-142 49 -256 49q-172 0 -272.5 -111t-100.5 -301q0 -174 104 -292.5t271 -118.5q132 0 272 51l27 -125q-136 -62 -299 -62q-246 0 -392.5 149.5t-146.5 397.5z" />
<glyph unicode="d" d="M145 537q0 229 108.5 379.5t287.5 150.5q197 0 317 -160v504h156v-1411h-156v150q-48 -77 -137.5 -127t-188.5 -50q-179 0 -283 159.5t-104 404.5zM309 528q0 -180 70.5 -297.5t193.5 -117.5q59 0 119 32t113 96t53 78v433q-112 180 -270 180q-129 0 -204 -114.5 t-75 -289.5z" />
<glyph unicode="e" d="M170 524q0 248 127.5 395.5t329.5 147.5q180 0 301 -137t121 -365v-49h-715q0 -177 102.5 -292t251.5 -115q142 0 293 51l27 -125q-138 -62 -322 -62q-232 0 -374 149t-142 402zM344 643h535q0 122 -76 205.5t-170 83.5q-121 0 -200.5 -80t-88.5 -209z" />
<glyph unicode="f" d="M223 907v135h262v35q0 199 68 279t235 80q108 0 240 -41l-41 -127q-111 32 -199 32q-84 0 -115.5 -47.5t-31.5 -191.5v-19h350v-135h-350v-907h-156v907h-262z" />
<glyph unicode="g" d="M178 -152q0 125 170 211q-141 66 -141 162q0 110 182 205q-84 51 -129 132t-45 171q0 147 100 241.5t250 94.5q108 0 195 -45l309 47v-152h-199q45 -79 45 -186q0 -142 -99 -240t-251 -98q-32 0 -61 2q-146 -71 -146 -125q0 -29 33.5 -49t91.5 -20l351 10 q125 0 194.5 -61t69.5 -173q0 -177 -158 -282t-369 -105q-173 0 -283 72.5t-110 187.5zM324 -143q0 -61 68 -104.5t179 -43.5q154 0 262.5 68.5t108.5 169.5q0 104 -154 104q-51 0 -176 -6q-79 -4 -124 -4q-22 0 -68.5 -36t-71 -72.5t-24.5 -75.5zM369 727 q0 -94 56.5 -154.5t139.5 -60.5q86 0 140.5 59.5t54.5 155.5q0 101 -53 158t-142 57q-83 0 -139.5 -59.5t-56.5 -155.5z" />
<glyph unicode="h" d="M215 0v1411h156v-522q168 178 354 178q293 0 293 -354v-713h-156v668q0 139 -44.5 201.5t-139.5 62.5q-143 0 -307 -178v-754h-156z" />
<glyph unicode="i" d="M295 907v135h463v-1042h-156v907h-307zM578 1329q0 43 31.5 75t72.5 32q44 0 75 -31.5t31 -75.5q0 -46 -30.5 -77t-75.5 -31q-41 0 -72.5 32.5t-31.5 75.5z" />
<glyph unicode="j" d="M215 -371l41 127q111 -32 199 -32q84 0 115.5 47.5t31.5 191.5v944h-307v135h463v-1095q0 -196 -67.5 -277.5t-235.5 -81.5q-108 0 -240 41zM578 1329q0 43 31.5 75t72.5 32q44 0 75 -31.5t31 -75.5q0 -46 -30.5 -77t-75.5 -31q-41 0 -72.5 32.5t-31.5 75.5z" />
<glyph unicode="k" d="M215 0v1411h156v-809l489 440h199l-475 -426l536 -616h-205l-442 518l-102 -88v-430h-156z" />
<glyph unicode="l" d="M244 1276v135h428v-1276h270v-135h-426v1276h-272z" />
<glyph unicode="m" d="M129 0v1042h150v-157q44 83 104.5 132.5t120.5 49.5q63 0 113 -49.5t69 -132.5q44 83 105 132.5t120 49.5q189 0 189 -338v-729h-156v684q0 248 -92 248q-47 0 -103.5 -85.5t-56.5 -94.5v-752h-155v684q0 248 -93 248q-46 0 -102.5 -85.5t-56.5 -94.5v-752h-156z" />
<glyph unicode="n" d="M215 0v1042h156v-153q168 178 354 178q293 0 293 -354v-713h-156v668q0 139 -44.5 201.5t-139.5 62.5q-143 0 -307 -178v-754h-156z" />
<glyph unicode="o" d="M145 522q0 246 127 395.5t342 149.5t342 -150t127 -395q0 -247 -127 -398t-342 -151q-216 0 -342.5 150.5t-126.5 398.5zM309 520q0 -174 81 -292.5t224 -118.5q142 0 224 120t82 291q0 180 -81 296t-225 116q-145 0 -225 -114.5t-80 -297.5z" />
<glyph unicode="p" d="M215 -412v1454h156v-135q52 72 140.5 116t186.5 44q180 0 282.5 -148.5t102.5 -386.5q0 -240 -107.5 -399.5t-289.5 -159.5q-97 0 -181.5 48.5t-133.5 128.5v-562h-156zM371 319q44 -88 119 -147t155 -59q126 0 200.5 118t74.5 293q0 180 -71 294t-198 114 q-165 0 -280 -180v-433z" />
<glyph unicode="q" d="M145 530q0 233 108 385t288 152q197 0 317 -160v135h156v-1454h-156v562q-48 -77 -137.5 -127t-188.5 -50q-179 0 -283 157t-104 400zM309 522q0 -179 70.5 -294t193.5 -115q59 0 119 32t113 96t53 78v433q-112 180 -270 180q-129 0 -204 -117t-75 -293z" />
<glyph unicode="r" d="M326 0v1042h155v-211q125 236 324 236q118 0 229 -53l-63 -150q-103 45 -178 45q-69 0 -135 -39.5t-121.5 -113t-55.5 -82.5v-674h-155z" />
<glyph unicode="s" d="M233 774q0 135 118 214t313 79q126 0 280 -43l-35 -131q-131 43 -247 43q-127 0 -201 -42.5t-74 -113.5q0 -45 34 -78.5t136 -62.5l149 -43q103 -29 168 -69.5t97.5 -98t32.5 -133.5q0 -149 -125 -235.5t-318 -86.5q-192 0 -317 58l30 135q131 -62 281 -62 q130 0 211.5 48.5t81.5 128.5q0 54 -40.5 96.5t-190.5 88.5q-121 37 -178 55.5t-106 54.5t-74.5 86t-25.5 112z" />
<glyph unicode="t" d="M240 907v135h200v285h152v-285h354v-135h-354v-596q0 -95 42 -147.5t114 -52.5q128 0 253 57l27 -121q-157 -72 -309 -72q-279 0 -279 295v637h-200z" />
<glyph unicode="u" d="M213 330v712h156v-667q0 -133 42 -198.5t142 -65.5q143 0 307 178v753h156v-1042h-156v154q-168 -179 -354 -179q-293 0 -293 355z" />
<glyph unicode="v" d="M135 1042h170l295 -829l295 829h170l-395 -1042h-142z" />
<glyph unicode="w" d="M115 1042h155q83 -730 86 -766l191 453h160l190 -450l84 763h160l-150 -1042h-119l-245 590l-246 -590h-119z" />
<glyph unicode="x" d="M145 0l371 522l-371 520h179l280 -405l285 405h166l-369 -514l369 -528h-176l-279 408l-289 -408h-166z" />
<glyph unicode="y" d="M117 -377l26 125q76 -24 136 -24q84 0 138 65t109 213l-391 1040h170l295 -831l295 831h170l-395 -1042q-86 -230 -170.5 -321t-192.5 -91q-96 0 -190 35z" />
<glyph unicode="z" d="M203 0v84l594 821h-580v137h787v-77l-594 -828h594v-137h-801z" />
<glyph unicode="{" d="M358 453v163q109 0 158 73.5t49 260.5v97q0 209 63.5 286.5t207.5 77.5h79v-131h-30q-93 0 -129.5 -40t-36.5 -191v-64q0 -207 -48 -305t-163 -145q115 -48 163 -146t48 -305v-64q0 -151 36.5 -191t129.5 -40h30v-131h-79q-144 0 -207.5 77.5t-63.5 287.5v96 q0 187 -49 260.5t-158 73.5z" />
<glyph unicode="|" d="M532 -383v1794h154v-1794h-154z" />
<glyph unicode="}" d="M309 -211h31q93 0 129.5 40t36.5 191v64q0 207 48 305t163 146q-115 47 -163 145t-48 305v64q0 151 -36.5 191t-129.5 40h-31v131h80q144 0 207 -77.5t63 -286.5v-97q0 -169 44 -251.5t163 -82.5v-163q-108 0 -157.5 -73.5t-49.5 -260.5v-96q0 -210 -63 -287.5 t-207 -77.5h-80v131z" />
<glyph unicode="~" d="M59 399v144q158 131 306 131q86 0 258 -78t245 -78q117 0 287 137v-143q-155 -131 -299 -131q-84 0 -256 78q-176 78 -250 78q-117 0 -291 -138z" />
<glyph unicode="&#xa0;" />
<glyph unicode="&#xa2;" d="M197 520q0 217 117 363t325 178v186h117v-180q144 -3 274 -55l-41 -129q-123 43 -233 49v-823q126 5 252 51l26 -125q-126 -58 -278 -62v-180h-117v187q-210 31 -326 176.5t-116 363.5zM360 520q0 -144 74.5 -255t204.5 -146v803q-134 -30 -206.5 -136t-72.5 -266z" />
<glyph unicode="&#xa3;" d="M162 631v133h196v170q0 257 95.5 379.5t298.5 122.5q145 0 266 -54l-37 -133q-115 43 -227 43q-121 0 -176.5 -86t-55.5 -274v-168h252v-133h-252v-199q0 -116 -61 -180q93 0 226 -64q112 -53 177 -53q121 0 248 111v-168q-115 -98 -258 -98q-79 0 -204 60 q-114 56 -181 56q-127 0 -258 -106v157q112 86 129.5 148.5t17.5 118.5v217h-196z" />
<glyph unicode="&#xa5;" d="M94 1411h185l337 -639l338 639h185l-389 -717h340v-131h-392v-143h392v-131h-392v-293h-163v293h-392v131h392v143h-392v131h340z" />
<glyph unicode="&#xa8;" d="M309 1298q0 47 32 78t77 31q46 0 76 -30.5t30 -78.5q0 -44 -31 -76t-75 -32t-76.5 32.5t-32.5 75.5zM705 1298q0 47 31 78t77 31q45 0 75 -31t30 -78q0 -43 -31 -75.5t-74 -32.5q-45 0 -76.5 32.5t-31.5 75.5z" />
<glyph unicode="&#xa9;" d="M10 836q0 250 176.5 426t427.5 176q250 0 427.5 -177t177.5 -425q0 -251 -177.5 -429t-427.5 -178t-427 178t-177 429zM119 836q0 -206 145 -351t350 -145q206 0 352 145.5t146 350.5q0 204 -146 349.5t-352 145.5q-204 0 -349.5 -145.5t-145.5 -349.5zM346 838 q0 153 75.5 241t209.5 88q89 0 180 -49l-35 -94q-67 37 -145 37q-82 0 -120 -52.5t-38 -170.5q0 -222 158 -222q73 0 160 54l32 -92q-92 -68 -192 -68q-130 0 -207.5 92t-77.5 236z" />
<glyph unicode="&#xab;" d="M176 502v121l381 440l92 -80l-358 -422l358 -422l-92 -80zM578 502v121l380 440l93 -80l-359 -422l359 -422l-93 -80z" />
<glyph unicode="&#xad;" d="M307 487v152h594v-152h-594z" />
<glyph unicode="&#xae;" d="M10 836q0 250 176.5 426t427.5 176q250 0 427.5 -177t177.5 -425q0 -251 -177.5 -429t-427.5 -178t-427 178t-177 429zM119 836q0 -206 145 -351t350 -145q206 0 352 145.5t146 350.5q0 204 -146 349.5t-352 145.5q-204 0 -349.5 -145.5t-145.5 -349.5zM403 512v653h205 q103 0 169.5 -52t66.5 -140q0 -122 -125 -172l203 -289h-144l-170 258h-78v-258h-127zM530 874h68q123 0 123 95q0 90 -117 90h-74v-185z" />
<glyph unicode="&#xb4;" d="M459 1165l198 301h226l-312 -301h-112z" />
<glyph unicode="&#xb8;" d="M449 -264q34 -4 55 -4q55 0 93 22.5t38 50.5q0 66 -127 66l45 129h100l-16 -53q119 -28 119 -125q0 -87 -64.5 -138t-161.5 -51q-40 0 -81 7v96z" />
<glyph unicode="&#xbb;" d="M176 139l359 422l-359 422l92 80l381 -440v-121l-381 -443zM578 139l358 422l-358 422l92 80l381 -440v-121l-381 -443z" />
<glyph unicode="&#x2c6;" d="M309 1165l199 301h225l199 -301h-113l-198 193l-199 -193h-113z" />
<glyph unicode="&#x2da;" d="M424 1346q0 77 56 133.5t134 56.5t134.5 -56.5t56.5 -133.5q0 -78 -56.5 -134.5t-134.5 -56.5t-134 56.5t-56 134.5zM502 1346q0 -47 33 -80t79 -33t79.5 33.5t33.5 79.5q0 45 -33.5 78.5t-79.5 33.5q-45 0 -78.5 -33.5t-33.5 -78.5z" />
<glyph unicode="&#x2dc;" d="M293 1200q34 230 192 230q56 0 174 -57q101 -48 142 -48q39 0 68 30t36 75h84q-34 -230 -192 -230q-56 0 -174 57q-101 48 -142 48q-39 0 -68 -30t-36 -75h-84z" />
<glyph unicode="&#x401;" d="M256 0v1411h731v-143h-567v-437h545v-143h-545v-545h573v-143h-737zM325 1654q0 47 32 78t77 31q46 0 76 -30.5t30 -78.5q0 -44 -31 -76t-75 -32t-76.5 32.5t-32.5 75.5zM721 1654q0 47 31 78t77 31q45 0 75 -31t30 -78q0 -43 -31 -75.5t-74 -32.5q-45 0 -76.5 32.5 t-31.5 75.5z" />
<glyph unicode="&#x402;" d="M6 1278v133h748v-133h-291v-444q122 81 266 81q179 0 283 -116.5t104 -327.5v-10q0 -238 -92 -351.5t-256 -113.5q-51 0 -119 24l45 121q52 -10 84 -10q82 0 128 83.5t46 244.5v8q0 313 -243 313q-120 0 -246 -86v-694h-164v1278h-293z" />
<glyph unicode="&#x403;" d="M256 0v1411h768v-143h-604v-1268h-164zM459 1534l198 301h226l-312 -301h-112z" />
<glyph unicode="&#x404;" d="M127 705q0 344 138 538.5t421 194.5q102 0 202 -26t161 -69l-54 -129q-141 80 -309 80q-364 0 -383 -512h563v-143h-563q23 -522 383 -522q163 0 334 100l51 -129q-166 -115 -385 -115q-274 0 -416.5 188t-142.5 544z" />
<glyph unicode="&#x405;" d="M227 1067q0 175 126 273t319 98q141 0 280 -43l-37 -140q-126 43 -239 43q-128 0 -208.5 -58.5t-80.5 -166.5q0 -128 211 -225q156 -72 206.5 -100t102.5 -77t83.5 -115.5t31.5 -149.5q0 -206 -138.5 -319.5t-326.5 -113.5q-182 0 -319 72l34 141q161 -73 281 -73 q140 0 224.5 72.5t84.5 199.5q0 94 -55 159.5t-203 133.5q-152 70 -196.5 95.5t-88.5 70.5t-68 101t-24 122z" />
<glyph unicode="&#x406;" d="M287 0v143h243v1125h-243v143h641v-143h-234v-1125h234v-143h-641z" />
<glyph unicode="&#x407;" d="M287 0v143h243v1125h-243v143h641v-143h-234v-1125h234v-143h-641zM309 1650q0 47 32 78t77 31q46 0 76 -30.5t30 -78.5q0 -44 -31 -76t-75 -32t-76.5 32.5t-32.5 75.5zM705 1650q0 47 31 78t77 31q45 0 75 -31t30 -78q0 -43 -31 -75.5t-74 -32.5q-45 0 -76.5 32.5 t-31.5 75.5z" />
<glyph unicode="&#x408;" d="M156 45l49 131q119 -59 262 -59q124 0 179.5 65.5t55.5 204.5v1024h164v-1036q0 -194 -101.5 -298t-297.5 -104q-171 0 -311 72z" />
<glyph unicode="&#x409;" d="M4 -12v143h10q60 0 84.5 36t24.5 163v1081h610v-567h33q424 0 424 -426q0 -202 -98 -310t-275 -108h-248v1268h-282v-955q0 -201 -53.5 -263t-190.5 -62h-39zM733 143h33q138 0 195 67t57 208q0 144 -62 213t-202 69h-21v-557z" />
<glyph unicode="&#x40a;" d="M123 0v1411h164v-567h282v567h164v-567h33q424 0 424 -426q0 -202 -98 -310t-275 -108h-248v700h-282v-700h-164zM733 143h33q137 0 194.5 67.5t57.5 207.5q0 144 -62 213t-202 69h-21v-557z" />
<glyph unicode="&#x40b;" d="M6 1278v133h748v-133h-291v-444q122 81 266 81q179 0 283 -116.5t104 -327.5v-471h-164v467q0 313 -243 313q-120 0 -246 -86v-694h-164v1278h-293z" />
<glyph unicode="&#x40c;" d="M209 0v1411h164v-676l626 676h189l-551 -596l569 -815h-207l-477 692l-149 -162v-530h-164zM479 1557l198 301h226l-312 -301h-112z" />
<glyph unicode="&#x40e;" d="M53 1411h172l387 -876l389 876h170l-489 -1104q-78 -176 -188 -250.5t-291 -74.5h-33v155h29q124 0 194 53t119 156zM270 1808h142q43 -114 209 -114q109 0 148 30.5t58 83.5h144q-53 -249 -350 -249q-139 0 -231.5 65t-119.5 184z" />
<glyph unicode="&#x40f;" d="M209 0v1411h164v-1268h483v1268h164v-1411h-324v-297h-164v297h-323z" />
<glyph unicode="&#x410;" d="M57 0l461 1411h197l461 -1411h-172l-156 494h-463l-158 -494h-170zM432 637h369l-185 584z" />
<glyph unicode="&#x411;" d="M209 0v1411h770v-143h-606v-418h186q244 0 385 -114.5t141 -315.5q0 -192 -139.5 -306t-335.5 -114h-401zM373 143h186q163 0 258.5 74t95.5 203q0 137 -96.5 212t-269.5 75h-174v-564z" />
<glyph unicode="&#x412;" d="M209 0v1411h391q204 0 319 -89.5t115 -252.5q0 -100 -66.5 -178t-183.5 -113v-4q141 -33 221 -128t80 -226q0 -192 -139.5 -306t-335.5 -114h-401zM373 143h186q163 0 258.5 74t95.5 203q0 137 -94 212t-272 75h-174v-564zM373 850h192q301 0 301 215q0 98 -74 150.5 t-217 52.5h-202v-418z" />
<glyph unicode="&#x413;" d="M256 0v1411h768v-143h-604v-1268h-164z" />
<glyph unicode="&#x414;" d="M14 143h133q158 137 250 414.5t92 654.5v199h553v-1268h172v-411h-163v268h-873v-268h-164v411zM348 143h531v1125h-228v-29q0 -374 -86 -667t-217 -429z" />
<glyph unicode="&#x415;" d="M256 0v1411h731v-143h-567v-437h545v-143h-545v-545h573v-143h-737z" />
<glyph unicode="&#x416;" d="M4 0l340 842l-301 569h158l331 -674v674h164v-676l334 676h158l-305 -569l344 -842h-170l-256 684l-105 -203v-481h-164v485l-104 199l-254 -684h-170z" />
<glyph unicode="&#x417;" d="M133 115l62 110q175 -108 344 -108q141 0 250.5 81t109.5 208q0 109 -120.5 186.5t-284.5 77.5h-129v143h98q154 0 277.5 74t123.5 186q0 91 -96.5 156t-220.5 65q-178 0 -324 -86l-67 117q164 113 399 113q192 0 334.5 -103.5t142.5 -259.5q0 -106 -82.5 -200.5 t-189.5 -118.5v-4q133 -32 220 -126t87 -210q0 -200 -155 -321.5t-380 -121.5q-222 0 -399 142z" />
<glyph unicode="&#x418;" d="M188 0v1411h156v-1135l514 1135h182v-1411h-157v1145l-512 -1145h-183z" />
<glyph unicode="&#x419;" d="M188 0v1411h156v-1135l514 1135h182v-1411h-157v1145l-512 -1145h-183zM270 1808h142q43 -114 209 -114q109 0 148 30.5t58 83.5h144q-53 -249 -350 -249q-139 0 -231.5 65t-119.5 184z" />
<glyph unicode="&#x41a;" d="M209 0v1411h164v-676l626 676h189l-551 -596l569 -815h-207l-477 692l-149 -162v-530h-164z" />
<glyph unicode="&#x41b;" d="M90 -12v143h10q60 0 84.5 36t24.5 163v1081h811v-1411h-164v1268h-483v-955q0 -201 -53.5 -263t-190.5 -62h-39z" />
<glyph unicode="&#x41c;" d="M172 0v1411h213l236 -643l235 643h213v-1411h-158v1210l-213 -579h-155l-213 579v-1210h-158z" />
<glyph unicode="&#x41d;" d="M209 0v1411h164v-567h483v567h164v-1411h-164v700h-483v-700h-164z" />
<glyph unicode="&#x41e;" d="M127 705q0 357 124 545t361 188t361.5 -187.5t124.5 -545.5q0 -356 -124 -544t-362 -188q-236 0 -360.5 187.5t-124.5 544.5zM301 705q0 -287 79 -437.5t232 -150.5q312 0 312 588q0 589 -312 589q-152 0 -231.5 -152.5t-79.5 -436.5z" />
<glyph unicode="&#x41f;" d="M209 0v1411h811v-1411h-164v1268h-483v-1268h-164z" />
<glyph unicode="&#x420;" d="M256 0v1411h358q203 0 325 -102t122 -281q0 -180 -121.5 -287.5t-318.5 -107.5h-201v-633h-164zM420 776h178q289 0 289 242q0 112 -78.5 181t-202.5 69h-186v-492z" />
<glyph unicode="&#x421;" d="M127 705q0 344 138 538.5t421 194.5q102 0 202 -26t161 -69l-54 -129q-141 80 -309 80q-195 0 -290 -141.5t-95 -447.5q0 -588 385 -588q163 0 334 100l51 -129q-166 -115 -385 -115q-274 0 -416.5 188t-142.5 544z" />
<glyph unicode="&#x422;" d="M98 1278v133h1035v-133h-435v-1278h-163v1278h-437z" />
<glyph unicode="&#x423;" d="M53 1411h172l387 -876l389 876h170l-489 -1104q-78 -176 -188 -250.5t-291 -74.5h-33v155h29q124 0 194 53t119 156z" />
<glyph unicode="&#x424;" d="M55 725q0 210 123 356.5t354 167.5v162h164v-162q231 -24 354.5 -170.5t123.5 -353.5q0 -204 -123.5 -350t-354.5 -170v-205h-164v205q-232 21 -354.5 165t-122.5 355zM227 725q0 -194 78 -284.5t227 -104.5v778q-305 -29 -305 -389zM696 338q305 38 305 387 q0 156 -76.5 262.5t-228.5 126.5v-776z" />
<glyph unicode="&#x425;" d="M86 0l451 719l-449 692h188l347 -559l350 559h180l-442 -692l452 -719h-182l-358 578l-355 -578h-182z" />
<glyph unicode="&#x426;" d="M209 0v1411h164v-1268h483v1268h164v-1268h92v-440h-164v297h-739z" />
<glyph unicode="&#x427;" d="M209 940v471h164v-467q0 -313 237 -313q120 0 246 86v694h164v-1411h-164v578q-122 -82 -266 -82q-177 0 -279 116t-102 328z" />
<glyph unicode="&#x428;" d="M90 0v1411h164v-1268h278v1268h164v-1268h279v1268h164v-1411h-1049z" />
<glyph unicode="&#x429;" d="M90 0v1411h164v-1268h278v1268h164v-1268h279v1268h164v-1268h90v-440h-164v297h-975z" />
<glyph unicode="&#x42a;" d="M10 1268v143h459v-561h104q244 0 385.5 -114.5t141.5 -315.5q0 -187 -137.5 -303.5t-337.5 -116.5h-320v1268h-295zM469 143h104q163 0 259 74t96 203q0 137 -97 212t-270 75h-92v-564z" />
<glyph unicode="&#x42b;" d="M90 0v1411h164v-561h104q244 0 385.5 -114.5t141.5 -315.5q0 -187 -137.5 -303.5t-337.5 -116.5h-320zM254 143h104q163 0 259 74t96 203q0 137 -97 212t-270 75h-92v-564zM979 0v1411h164v-1411h-164z" />
<glyph unicode="&#x42c;" d="M246 0v1411h164v-561h104q244 0 385 -114.5t141 -315.5q0 -192 -139.5 -306t-335.5 -114h-319zM410 143h104q163 0 258.5 74t95.5 203q0 137 -96.5 212t-269.5 75h-92v-564z" />
<glyph unicode="&#x42d;" d="M158 88l51 129q171 -100 334 -100q360 0 383 522h-564v143h564q-19 512 -383 512q-168 0 -310 -80l-53 129q60 43 160.5 69t202.5 26q274 0 416.5 -188.5t142.5 -544.5t-142.5 -544t-416.5 -188q-219 0 -385 115z" />
<glyph unicode="&#x42e;" d="M90 0v1411h164v-631h156q18 658 372 658q189 0 281 -181t92 -552q0 -732 -373 -732q-182 0 -273.5 164.5t-98.5 499.5h-156v-637h-164zM584 705q0 -338 48 -463t150 -125q103 0 151 125t48 463q0 238 -21 358t-64.5 175.5t-113.5 55.5q-102 0 -150 -125.5t-48 -463.5z " />
<glyph unicode="&#x42f;" d="M55 0l451 676q-149 36 -234.5 136.5t-85.5 229.5q0 178 119 273.5t316 95.5h399v-1411h-164v641h-182l-414 -641h-205zM356 1032q0 -107 81 -177.5t212 -70.5h207v484h-211q-289 0 -289 -236z" />
<glyph unicode="&#x430;" d="M215 268q0 77 31 136t91 99.5t146 64t204 32.5l175 14v50q0 268 -250 268q-59 0 -149.5 -25.5t-155.5 -60.5l-41 112q213 109 396 109q356 0 356 -377v-448q0 -136 26 -242h-155q-19 63 -19 168q-133 -195 -362 -195q-116 0 -204.5 82.5t-88.5 212.5zM379 279 q0 -70 49 -113t125 -43q83 0 165 49.5t144 136.5v189q-211 -19 -289.5 -35.5t-136 -61.5t-57.5 -122z" />
<glyph unicode="&#x431;" d="M145 522v6q0 897 484 897q71 0 155 -12q69 -10 119 -10q77 0 117 20v-135q-62 -18 -117 -18q-65 0 -152 11q-74 9 -120 9q-126 0 -199 -77.5t-102 -260.5q101 115 284 115q215 0 342 -150t127 -395q0 -247 -127 -398t-342 -151q-216 0 -342.5 150.5t-126.5 398.5z M309 520q0 -174 81 -292.5t224 -118.5q142 0 224 120t82 291q0 180 -81 296t-225 116q-145 0 -225 -114.5t-80 -297.5z" />
<glyph unicode="&#x432;" d="M215 0v1042h414q163 0 263.5 -75t100.5 -201q0 -75 -47 -135t-115 -78q94 -20 156 -87t62 -142q0 -155 -107.5 -239.5t-249.5 -84.5h-477zM371 135h293q96 0 157.5 49t61.5 135q0 76 -67.5 118t-176.5 42h-268v-344zM371 614h262q196 0 196 146q0 68 -56 107.5t-146 39.5 h-256v-293z" />
<glyph unicode="&#x433;" d="M358 0v1042h566v-135h-410v-907h-156z" />
<glyph unicode="&#x434;" d="M70 135h84q119 102 193.5 290t74.5 427v190h575v-907h115v-340h-156v205h-731v-205h-155v340zM354 135h488v772h-264v-18q0 -235 -62.5 -433.5t-161.5 -320.5z" />
<glyph unicode="&#x435;" d="M170 524q0 248 127.5 395.5t329.5 147.5q180 0 301 -137t121 -365v-49h-715q0 -177 102.5 -292t251.5 -115q142 0 293 51l27 -125q-138 -62 -322 -62q-232 0 -374 149t-142 402zM344 643h535q0 122 -76 205.5t-170 83.5q-121 0 -200.5 -80t-88.5 -209z" />
<glyph unicode="&#x436;" d="M2 0l338 635l-322 407h164l355 -452v452h155v-452l355 452h163l-319 -407l336 -635h-176l-258 510l-101 -127v-383h-155v383l-101 127l-258 -510h-176z" />
<glyph unicode="&#x437;" d="M199 72l61 116q148 -79 293 -79q122 0 203.5 54.5t81.5 141.5q0 83 -76 127.5t-207 44.5h-113v141h97q125 0 196.5 45t71.5 125q0 59 -65 101.5t-154 42.5q-154 0 -283 -49l-63 118q56 28 155 47t185 19q184 0 291.5 -75.5t107.5 -203.5q0 -73 -59.5 -140.5t-151.5 -88.5 v-2q95 -14 163 -85.5t68 -162.5q0 -146 -133 -241t-317 -95q-179 0 -352 99z" />
<glyph unicode="&#x438;" d="M215 0v1042h156v-811l465 811h178v-1042h-158v807l-463 -807h-178z" />
<glyph unicode="&#x439;" d="M215 0v1042h156v-811l465 811h178v-1042h-158v807l-463 -807h-178zM262 1464h141q44 -114 209 -114q110 0 149 30.5t58 83.5h144q-53 -250 -351 -250q-138 0 -230.5 65.5t-119.5 184.5z" />
<glyph unicode="&#x43a;" d="M215 0v1042h156v-440l489 440h199l-475 -426l536 -616h-205l-442 518l-102 -88v-430h-156z" />
<glyph unicode="&#x43b;" d="M49 -18v135h10q95 0 125.5 44t30.5 146v735h799v-1042h-158v907h-485v-616q0 -179 -63.5 -244t-219.5 -65h-39z" />
<glyph unicode="&#x43c;" d="M117 0v1042h270l227 -833l238 833h260v-1042h-160v915l-262 -915h-162l-260 915v-915h-151z" />
<glyph unicode="&#x43d;" d="M215 0v1042h156v-393h485v393h158v-1042h-158v514h-485v-514h-156z" />
<glyph unicode="&#x43e;" d="M145 522q0 246 127 395.5t342 149.5t342 -150t127 -395q0 -247 -127 -398t-342 -151q-216 0 -342.5 150.5t-126.5 398.5zM309 520q0 -174 81 -292.5t224 -118.5q142 0 224 120t82 291q0 180 -81 296t-225 116q-145 0 -225 -114.5t-80 -297.5z" />
<glyph unicode="&#x43f;" d="M215 0v1042h799v-1042h-158v907h-485v-907h-156z" />
<glyph unicode="&#x440;" d="M215 -412v1454h156v-135q52 72 140.5 116t186.5 44q180 0 282.5 -148.5t102.5 -386.5q0 -240 -107.5 -399.5t-289.5 -159.5q-97 0 -181.5 48.5t-133.5 128.5v-562h-156zM371 319q44 -88 119 -147t155 -59q126 0 200.5 118t74.5 293q0 180 -71 294t-198 114 q-165 0 -280 -180v-433z" />
<glyph unicode="&#x441;" d="M176 520q0 248 147.5 397.5t387.5 149.5q157 0 299 -55l-41 -129q-142 49 -256 49q-172 0 -272.5 -111t-100.5 -301q0 -174 104 -292.5t271 -118.5q132 0 272 51l27 -125q-136 -62 -299 -62q-246 0 -392.5 149.5t-146.5 397.5z" />
<glyph unicode="&#x442;" d="M193 907v135h843v-135h-344v-907h-155v907h-344z" />
<glyph unicode="&#x443;" d="M117 -377l26 125q76 -24 136 -24q84 0 138 65t109 213l-391 1040h170l295 -831l295 831h170l-395 -1042q-86 -230 -170.5 -321t-192.5 -91q-96 0 -190 35z" />
<glyph unicode="&#x444;" d="M49 537q0 530 273 530q143 0 215 -160v504h155v-504q72 160 215 160q273 0 273 -530q0 -564 -265 -564q-75 0 -126.5 38t-96.5 139v-562h-155v562q-46 -101 -97 -139t-127 -38q-264 0 -264 564zM213 528q0 -172 15.5 -255t46.5 -121.5t79 -38.5q42 0 76.5 27.5t70.5 100 t36 78.5v433q-32 84 -78 132t-90 48q-78 0 -117 -82t-39 -322zM692 319q55 -130 95 -168t87 -38q71 0 106.5 87t35.5 328q0 173 -17 251.5t-51.5 115.5t-87.5 37q-59 0 -113.5 -77.5t-54.5 -102.5v-433z" />
<glyph unicode="&#x445;" d="M145 0l371 522l-371 520h179l280 -405l285 405h166l-369 -514l369 -528h-176l-279 408l-289 -408h-166z" />
<glyph unicode="&#x446;" d="M158 0v1042h155v-907h547v907h158v-907h115v-362h-158v227h-817z" />
<glyph unicode="&#x447;" d="M170 659v383h156v-337q0 -139 51 -204t160 -65q141 0 319 174v432h158v-1042h-158v475q-185 -174 -367 -174q-155 0 -237 91.5t-82 266.5z" />
<glyph unicode="&#x448;" d="M117 0v1042h155v-907h265v907h155v-907h264v907h156v-1042h-995z" />
<glyph unicode="&#x449;" d="M117 0v1042h155v-907h265v907h155v-907h264v907h156v-907h117v-362h-158v227h-954z" />
<glyph unicode="&#x44a;" d="M41 907v135h477v-393h109q201 0 310.5 -86t109.5 -241q0 -153 -107 -237.5t-311 -84.5h-267v907h-321zM518 135h109q120 0 188 48t68 139q0 103 -74.5 147.5t-181.5 44.5h-109v-379z" />
<glyph unicode="&#x44b;" d="M117 0v1042h155v-393h109q199 0 309.5 -87.5t110.5 -239.5q0 -155 -108 -238.5t-310 -83.5h-266zM272 135h109q120 0 187 47.5t67 139.5q0 94 -67.5 143t-186.5 49h-109v-379zM950 0v1042h156v-1042h-156z" />
<glyph unicode="&#x44c;" d="M317 0v1042h156v-393h109q202 0 310.5 -85.5t108.5 -241.5q0 -157 -106.5 -239.5t-310.5 -82.5h-267zM473 135h109q256 0 256 187q0 192 -256 192h-109v-379z" />
<glyph unicode="&#x44d;" d="M215 35l27 125q140 -51 272 -51q145 0 247 94.5t124 255.5h-398v135h398q-22 162 -119.5 250t-249.5 88q-114 0 -256 -49l-41 129q141 55 299 55q239 0 387 -150.5t148 -396.5q0 -247 -146 -397t-393 -150q-163 0 -299 62z" />
<glyph unicode="&#x44e;" d="M117 0v1042h155v-448h115q22 473 385 473q186 0 286.5 -144t100.5 -401q0 -249 -97.5 -399t-289.5 -150q-366 0 -385 486h-115v-459h-155zM549 520q0 -411 223 -411t223 411q0 216 -55.5 314t-167.5 98t-167.5 -98t-55.5 -314z" />
<glyph unicode="&#x44f;" d="M154 0l329 465q-102 31 -161.5 109t-59.5 174q0 137 93 215.5t255 78.5h348v-1042h-155v426h-170l-299 -426h-180zM420 748q0 -77 64 -132t153 -55h166v344h-174q-99 0 -154 -41.5t-55 -115.5z" />
<glyph unicode="&#x451;" d="M170 524q0 248 127.5 395.5t329.5 147.5q180 0 301 -137t121 -365v-49h-715q0 -177 102.5 -292t251.5 -115q142 0 293 51l27 -125q-138 -62 -322 -62q-232 0 -374 149t-142 402zM325 1298q0 47 32 78t77 31q46 0 76 -30.5t30 -78.5q0 -44 -31 -76t-75 -32t-76.5 32.5 t-32.5 75.5zM344 643h535q0 122 -76 205.5t-170 83.5q-121 0 -200.5 -80t-88.5 -209zM721 1298q0 47 31 78t77 31q45 0 75 -31t30 -78q0 -43 -31 -75.5t-74 -32.5q-45 0 -76.5 32.5t-31.5 75.5z" />
<glyph unicode="&#x452;" d="M59 1190v135h156v86h156v-86h182v-135h-182v-301q168 178 354 178q293 0 293 -354v-766q0 -196 -67.5 -277.5t-235.5 -81.5q-108 0 -240 41l41 127q112 -32 199 -32q84 0 115.5 47.5t31.5 191.5v705q0 139 -44.5 201.5t-139.5 62.5q-143 0 -307 -178v-754h-156v1190h-156 z" />
<glyph unicode="&#x453;" d="M358 0v1042h566v-135h-410v-907h-156zM459 1165l198 301h226l-312 -301h-112z" />
<glyph unicode="&#x454;" d="M176 520q0 248 147.5 397.5t387.5 149.5q157 0 299 -55l-41 -129q-142 49 -256 49q-152 0 -250 -88t-119 -250h397v-135h-397q22 -161 123.5 -255.5t247.5 -94.5q132 0 272 51l27 -125q-136 -62 -299 -62q-246 0 -392.5 149.5t-146.5 397.5z" />
<glyph unicode="&#x455;" d="M233 774q0 135 118 214t313 79q126 0 280 -43l-35 -131q-131 43 -247 43q-127 0 -201 -42.5t-74 -113.5q0 -45 34 -78.5t136 -62.5l149 -43q103 -29 168 -69.5t97.5 -98t32.5 -133.5q0 -149 -125 -235.5t-318 -86.5q-192 0 -317 58l30 135q131 -62 281 -62 q130 0 211.5 48.5t81.5 128.5q0 54 -40.5 96.5t-190.5 88.5q-121 37 -178 55.5t-106 54.5t-74.5 86t-25.5 112z" />
<glyph unicode="&#x456;" d="M295 907v135h463v-1042h-156v907h-307zM578 1329q0 43 31.5 75t72.5 32q44 0 75 -31.5t31 -75.5q0 -46 -30.5 -77t-75.5 -31q-41 0 -72.5 32.5t-31.5 75.5z" />
<glyph unicode="&#x457;" d="M295 907v135h463v-1042h-156v907h-307zM329 1298q0 47 32 78t77 31q46 0 76 -30.5t30 -78.5q0 -44 -31 -76t-75 -32t-76.5 32.5t-32.5 75.5zM725 1298q0 47 31 78t77 31q45 0 75 -31t30 -78q0 -43 -31 -75.5t-74 -32.5q-45 0 -76.5 32.5t-31.5 75.5z" />
<glyph unicode="&#x458;" d="M215 -371l41 127q111 -32 199 -32q84 0 115.5 47.5t31.5 191.5v944h-307v135h463v-1095q0 -196 -67.5 -277.5t-235.5 -81.5q-108 0 -240 41zM578 1329q0 43 31.5 75t72.5 32q44 0 75 -31.5t31 -75.5q0 -46 -30.5 -77t-75.5 -31q-41 0 -72.5 32.5t-31.5 75.5z" />
<glyph unicode="&#x459;" d="M12 -18v135h11q114 0 114 190v735h606v-393h21q201 0 308.5 -85t107.5 -242q0 -322 -414 -322h-180v907h-293v-616q0 -165 -51 -237t-191 -72h-39zM743 135h21q252 0 252 187q0 192 -252 192h-21v-379z" />
<glyph unicode="&#x45a;" d="M111 0v1042h155v-393h320v393h157v-393h21q201 0 308.5 -85t107.5 -242q0 -158 -105 -240t-309 -82h-180v514h-320v-514h-155zM743 135h21q119 0 185.5 48.5t66.5 138.5q0 192 -252 192h-21v-379z" />
<glyph unicode="&#x45b;" d="M59 1190v135h156v86h156v-86h182v-135h-182v-301q168 178 354 178q293 0 293 -354v-713h-156v668q0 139 -44.5 201.5t-139.5 62.5q-143 0 -307 -178v-754h-156v1190h-156z" />
<glyph unicode="&#x45c;" d="M215 0v1042h156v-440l489 440h199l-475 -426l536 -616h-205l-442 518l-102 -88v-430h-156zM459 1165l198 301h226l-312 -301h-112z" />
<glyph unicode="&#x45e;" d="M117 -377l26 125q76 -24 136 -24q84 0 138 65t109 213l-391 1040h170l295 -831l295 831h170l-395 -1042q-86 -230 -170.5 -321t-192.5 -91q-96 0 -190 35zM246 1464h141q43 -114 209 -114q109 0 148.5 30.5t58.5 83.5h143q-53 -250 -350 -250q-138 0 -231 65.5 t-119 184.5z" />
<glyph unicode="&#x45f;" d="M158 0v1042h155v-907h547v907h158v-1042h-352v-227h-158v227h-350z" />
<glyph unicode="&#x490;" d="M256 0v1411h668v268h163v-411h-667v-1268h-164z" />
<glyph unicode="&#x491;" d="M317 0v1042h512v228h156v-363h-512v-907h-156z" />
<glyph unicode="&#x2000;" horiz-adv-x="929" />
<glyph unicode="&#x2001;" horiz-adv-x="1858" />
<glyph unicode="&#x2002;" horiz-adv-x="929" />
<glyph unicode="&#x2003;" horiz-adv-x="1858" />
<glyph unicode="&#x2004;" horiz-adv-x="619" />
<glyph unicode="&#x2005;" horiz-adv-x="464" />
<glyph unicode="&#x2006;" horiz-adv-x="309" />
<glyph unicode="&#x2007;" horiz-adv-x="309" />
<glyph unicode="&#x2008;" horiz-adv-x="232" />
<glyph unicode="&#x2009;" horiz-adv-x="371" />
<glyph unicode="&#x200a;" horiz-adv-x="103" />
<glyph unicode="&#x2010;" d="M307 487v152h594v-152h-594z" />
<glyph unicode="&#x2011;" d="M307 487v152h594v-152h-594z" />
<glyph unicode="&#x2012;" d="M307 487v152h594v-152h-594z" />
<glyph unicode="&#x2013;" d="M184 487v152h820v-152h-820z" />
<glyph unicode="&#x2014;" d="M0 487v152h1229v-152h-1229z" />
<glyph unicode="&#x2018;" d="M479 1135q0 195 217 305l39 -72q-123 -60 -123 -141q53 -6 87 -42.5t34 -84.5q0 -51 -33.5 -86t-83.5 -35q-55 0 -96 45.5t-41 110.5z" />
<glyph unicode="&#x2019;" d="M477 1049q123 60 123 141q-53 6 -87 42.5t-34 84.5q0 51 33.5 86t83.5 35q56 0 96.5 -45.5t40.5 -110.5q0 -195 -217 -305z" />
<glyph unicode="&#x201a;" d="M494 -168q122 60 122 141q-52 6 -86 43t-34 84q0 51 33 86t83 35q56 0 97 -45.5t41 -109.5q0 -196 -218 -306z" />
<glyph unicode="&#x201c;" d="M293 1135q0 195 217 305l39 -72q-123 -60 -123 -141q53 -6 87 -42.5t34 -84.5q0 -51 -33.5 -86t-83.5 -35q-56 0 -96.5 45.5t-40.5 110.5zM659 1135q0 195 218 305l38 -72q-122 -60 -122 -141q52 -6 86 -42.5t34 -84.5q0 -51 -33 -86t-83 -35q-56 0 -97 45.5t-41 110.5z " />
<glyph unicode="&#x201d;" d="M299 1049q123 60 123 141q-53 6 -87 42.5t-34 84.5q0 51 33.5 86t83.5 35q56 0 96.5 -45.5t40.5 -110.5q0 -195 -217 -305zM666 1049q122 60 122 141q-52 6 -86 42.5t-34 84.5q0 51 33.5 86t82.5 35q56 0 97 -45.5t41 -110.5q0 -195 -217 -305z" />
<glyph unicode="&#x201e;" d="M299 -168q123 60 123 141q-53 6 -87 43t-34 84q0 51 33.5 86t83.5 35q56 0 96.5 -45.5t40.5 -109.5q0 -196 -217 -306zM666 -168q122 60 122 141q-52 6 -86 43t-34 84q0 51 33 86t83 35q56 0 97 -45.5t41 -109.5q0 -196 -217 -306z" />
<glyph unicode="&#x2022;" d="M358 698q0 104 75 179t179 75t179 -75t75 -179t-75 -179t-179 -75t-179 75t-75 179z" />
<glyph unicode="&#x2026;" d="M80 104q0 54 35.5 89.5t87.5 35.5t88.5 -36t36.5 -89q0 -54 -36.5 -92.5t-88.5 -38.5t-87.5 38.5t-35.5 92.5zM494 104q0 54 35 89.5t87 35.5q53 0 89 -36t36 -89q0 -54 -36.5 -92.5t-88.5 -38.5q-51 0 -86.5 38.5t-35.5 92.5zM901 104q0 54 35.5 89.5t87.5 35.5 q53 0 89 -36t36 -89q0 -54 -36.5 -92.5t-88.5 -38.5q-51 0 -87 38.5t-36 92.5z" />
<glyph unicode="&#x202f;" horiz-adv-x="371" />
<glyph unicode="&#x2039;" d="M381 502v121l381 440l92 -80l-358 -422l358 -422l-92 -80z" />
<glyph unicode="&#x203a;" d="M375 139l358 422l-358 422l92 80l381 -440v-121l-381 -443z" />
<glyph unicode="&#x205f;" horiz-adv-x="464" />
<glyph unicode="&#x20ac;" d="M0 504l72 131h57q-2 21 -2 70q0 50 2 73h-129l71 131h70q80 529 545 529q102 0 202 -26t161 -69l-54 -129q-141 80 -309 80q-319 0 -373 -385h703l-72 -131h-641q-2 -23 -2 -73q0 -49 2 -70h653l-71 -131h-570q60 -387 371 -387q163 0 334 100l51 -129 q-166 -115 -385 -115q-469 0 -545 531h-141z" />
<glyph unicode="&#x2122;" d="M16 1303v108h471v-108h-172v-635h-127v635h-172zM545 668v743h145l154 -364l162 364h153v-743h-131v549l-137 -310h-94l-131 310v-549h-121z" />
<glyph unicode="&#x25fc;" horiz-adv-x="1040" d="M0 0v1040h1040v-1040h-1040z" />
</font>
</defs>
</svg>
